<svg width="321" height="41" viewBox="0 0 321 41" fill="none" xmlns="http://www.w3.org/2000/svg">
<path d="M0.0400001 -3.09944e-06H37.636C40.6867 -3.09944e-06 43.2173 0.554664 45.228 1.664C47.2387 2.73866 48.7467 4.14266 49.752 5.876C50.7573 7.57467 51.26 9.37733 51.26 11.284C51.26 13.26 50.7053 15.184 49.596 17.056C48.5213 18.8933 46.8747 20.4013 44.656 21.58C42.472 22.7587 39.7333 23.348 36.44 23.348C36.3013 23.348 35.9547 23.348 35.4 23.348C34.8453 23.348 34.2733 23.348 33.684 23.348C33.1293 23.348 32.7653 23.348 32.592 23.348C32.592 23.348 32.592 23.3653 32.592 23.4C32.592 23.4347 32.592 23.452 32.592 23.452C32.592 23.452 32.592 23.4693 32.592 23.504C32.592 23.504 32.592 23.5213 32.592 23.556H44.396L52.404 39H27.704C27.0453 37.232 26.3693 35.464 25.676 33.696C25.0173 31.928 24.3413 30.16 23.648 28.392C22.9893 26.624 22.3133 24.856 21.62 23.088H27.652C28.3453 23.088 28.952 22.984 29.472 22.776C30.0267 22.568 30.4773 22.2907 30.824 21.944C31.1707 21.5973 31.4307 21.216 31.604 20.8C31.7773 20.3493 31.864 19.8987 31.864 19.448C31.864 18.824 31.708 18.2347 31.396 17.68C31.084 17.1253 30.616 16.6747 29.992 16.328C29.368 15.9813 28.588 15.808 27.652 15.808H21.724C21.724 15.808 21.7067 15.8253 21.672 15.86C21.672 15.86 21.6547 15.86 21.62 15.86C21.62 15.86 21.62 15.8773 21.62 15.912C21.62 18.1653 21.62 19.8293 21.62 20.904C21.62 21.944 21.62 22.6027 21.62 22.88C21.62 23.1227 21.62 23.2093 21.62 23.14C21.62 23.14 21.62 23.3307 21.62 23.712C21.62 24.0587 21.62 24.544 21.62 25.168C21.62 25.792 21.62 26.5027 21.62 27.3C21.62 28.444 21.62 29.7093 21.62 31.096C21.62 32.4827 21.62 33.8693 21.62 35.256C21.62 36.608 21.62 37.856 21.62 39H0.0400001C0.0400001 36.7813 0.0400001 34.5627 0.0400001 32.344C0.0400001 30.0907 0.0400001 27.8547 0.0400001 25.636C0.0400001 23.4173 0.0400001 21.1987 0.0400001 18.98C0.0400001 16.7267 0.0400001 14.4907 0.0400001 12.272C0.0400001 10.2267 0.0400001 8.18133 0.0400001 6.136C0.0400001 4.09066 0.0400001 2.04533 0.0400001 -3.09944e-06ZM54.8419 8.632C57.3726 7.488 60.1112 6.63866 63.0579 6.084C66.0392 5.49467 69.0206 5.2 72.0019 5.2C74.9139 5.2 77.7219 5.47733 80.4259 6.032C83.1299 6.58667 85.5392 7.436 87.6539 8.58C89.8032 9.724 91.5019 11.1453 92.7499 12.844C93.9979 14.5427 94.6219 16.536 94.6219 18.824C94.6219 22.1867 94.6219 25.5493 94.6219 28.912C94.6219 32.2747 94.6219 35.6373 94.6219 39C93.4086 39 92.1952 39 90.9819 39C89.7686 39 88.5552 39 87.3419 39C86.1286 39 84.9152 39 83.7019 39C82.4886 39 81.2752 39 80.0619 39C78.8486 39 77.6352 39 76.4219 39C76.4219 37.1627 76.4219 35.3427 76.4219 33.54C76.4219 31.7027 76.4219 29.8827 76.4219 28.08C76.4219 27.456 76.2139 26.9533 75.7979 26.572C75.3819 26.1907 74.8792 25.9307 74.2899 25.792C73.7006 25.6187 73.1112 25.532 72.5219 25.532C71.2046 25.532 70.1992 25.792 69.5059 26.312C68.8472 26.832 68.5179 27.4213 68.5179 28.08C68.5179 28.7387 68.8646 29.3453 69.5579 29.9C70.2512 30.42 71.2392 30.68 72.5219 30.68C73.1459 30.68 73.8566 30.5587 74.6539 30.316C75.4512 30.0733 76.0579 29.4493 76.4739 28.444C75.7459 30.1427 75.0006 31.8413 74.2379 33.54C73.5099 35.2387 72.7819 36.9373 72.0539 38.636C70.8059 39.26 69.4886 39.6933 68.1019 39.936C66.7499 40.2133 65.3979 40.352 64.0459 40.352C62.4166 40.352 60.8392 40.1267 59.3139 39.676C57.8232 39.26 56.4712 38.636 55.2579 37.804C54.0792 36.972 53.1432 35.932 52.4499 34.684C51.7566 33.436 51.4099 31.98 51.4099 30.316C51.4099 29.3107 51.5832 28.3227 51.9299 27.352C52.2766 26.3813 52.7966 25.4627 53.4899 24.596C54.1832 23.7293 55.0499 22.9667 56.0899 22.308C57.1646 21.6493 58.4299 21.1467 59.8859 20.8C61.3419 20.4187 63.0059 20.228 64.8779 20.228C66.0912 20.228 67.2699 20.332 68.4139 20.54C69.5579 20.7133 70.6326 20.9907 71.6379 21.372C72.6779 21.7533 73.5966 22.2213 74.3939 22.776C75.2259 23.3307 75.9019 23.9547 76.4219 24.648C76.4219 24.5787 76.4219 24.5267 76.4219 24.492C76.4219 24.4227 76.4219 24.3707 76.4219 24.336C76.4219 24.2667 76.4219 24.2147 76.4219 24.18C76.4219 23.1053 76.1446 22.1867 75.5899 21.424C75.0699 20.6267 74.3419 19.9853 73.4059 19.5C72.5046 18.98 71.4472 18.5987 70.2339 18.356C69.0552 18.1133 67.8072 17.992 66.4899 17.992C64.4446 17.992 62.3819 18.252 60.3019 18.772C58.2219 19.292 56.4019 20.0547 54.8419 21.06V8.632ZM96.6259 39C96.6259 35.776 96.6259 32.5693 96.6259 29.38C96.6259 26.1907 96.6259 23.0013 96.6259 19.812C96.6259 16.588 96.6259 13.3813 96.6259 10.192C96.6259 8.45867 96.6259 6.76 96.6259 5.096C96.6259 3.39733 96.6259 1.69866 96.6259 -3.09944e-06H114.618C114.618 1.07466 114.618 2.34 114.618 3.796C114.618 5.21733 114.618 6.708 114.618 8.268C114.618 9.828 114.618 11.336 114.618 12.792C114.618 14.7333 114.618 16.3973 114.618 17.784C114.618 19.1707 114.618 19.9507 114.618 20.124C114.618 20.2973 114.618 20.696 114.618 21.32C114.618 21.9093 114.618 22.6373 114.618 23.504C114.618 24.648 114.618 25.9307 114.618 27.352C114.618 28.7733 114.618 30.2293 114.618 31.72C114.618 33.176 114.618 34.5453 114.618 35.828C114.618 37.1107 114.618 38.168 114.618 39H96.6259ZM120.13 39C120.13 37.648 120.13 36.296 120.13 34.944C120.13 33.592 120.13 32.2573 120.13 30.94C120.13 29.588 120.13 28.236 120.13 26.884C120.13 25.532 120.13 24.18 120.13 22.828C120.13 21.8227 119.87 21.0947 119.35 20.644C118.865 20.1933 118.275 19.9507 117.582 19.916C116.889 19.8467 116.247 19.8987 115.658 20.072C115.103 20.2453 114.757 20.436 114.618 20.644L118.778 7.28C120.026 6.72533 121.361 6.30933 122.782 6.032C124.203 5.75467 125.607 5.616 126.994 5.616C128.935 5.616 130.738 5.928 132.402 6.552C134.101 7.176 135.47 8.164 136.51 9.516C137.585 10.868 138.122 12.6707 138.122 14.924C138.122 17.5933 138.122 20.28 138.122 22.984C138.122 25.6533 138.122 28.3227 138.122 30.992C138.122 33.6613 138.122 36.3307 138.122 39H120.13ZM181.641 6.76C181.641 9.08267 181.641 11.4227 181.641 13.78C181.641 16.1373 181.641 18.4947 181.641 20.852C181.641 22.8627 181.641 24.8907 181.641 26.936C181.641 28.9467 181.641 30.9573 181.641 32.968C181.641 34.9787 181.641 36.9893 181.641 39H163.649C163.649 37.544 163.649 36.0707 163.649 34.58C163.649 33.0893 163.649 31.5987 163.649 30.108C163.649 28.5827 163.649 27.1093 163.649 25.688C163.649 22.464 163.649 19.3093 163.649 16.224C163.649 13.104 163.649 9.94933 163.649 6.76H181.641ZM158.137 6.76C158.137 8.59733 158.137 10.452 158.137 12.324C158.137 14.1613 158.137 15.9987 158.137 17.836C158.137 19.6733 158.137 21.528 158.137 23.4C158.137 24.1627 158.259 24.7867 158.501 25.272C158.779 25.7227 159.125 26.052 159.541 26.26C159.992 26.4333 160.46 26.52 160.945 26.52C161.431 26.52 161.916 26.4333 162.401 26.26C162.921 26.0867 163.337 25.8787 163.649 25.636L159.489 38.48C158.519 38.9653 157.323 39.364 155.901 39.676C154.515 39.988 153.059 40.144 151.533 40.144C150.147 40.144 148.777 39.9707 147.425 39.624C146.073 39.312 144.843 38.7747 143.733 38.012C142.659 37.2493 141.792 36.244 141.133 34.996C140.475 33.748 140.145 32.188 140.145 30.316C140.145 27.82 140.145 25.324 140.145 22.828C140.145 20.332 140.145 17.836 140.145 15.34C140.145 13.9187 140.145 12.4973 140.145 11.076C140.145 9.62 140.145 8.18133 140.145 6.76H158.137ZM183.716 39C183.716 36.2267 183.716 33.4707 183.716 30.732C183.716 27.9587 183.716 25.2027 183.716 22.464C183.716 19.6907 183.716 16.9347 183.716 14.196C183.716 11.8387 183.716 9.48133 183.716 7.124C183.716 4.732 183.716 2.35733 183.716 -3.09944e-06H201.708C201.708 1.456 201.708 2.912 201.708 4.368C201.708 5.78933 201.708 7.228 201.708 8.684C201.708 13.7107 201.708 18.7547 201.708 23.816C201.708 28.8773 201.708 33.9387 201.708 39H183.716ZM247.101 -3.09944e-06C250.325 -3.09944e-06 253.133 0.450664 255.525 1.352C257.951 2.21866 259.945 3.41466 261.505 4.94C263.099 6.43066 264.295 8.12933 265.093 10.036C265.89 11.9427 266.289 13.9187 266.289 15.964C266.289 18.148 265.873 20.228 265.041 22.204C264.243 24.1453 263.03 25.8787 261.401 27.404C259.806 28.9293 257.813 30.1427 255.421 31.044C253.029 31.9107 250.255 32.344 247.101 32.344H235.921C235.921 32.344 235.903 32.3613 235.869 32.396C235.869 32.396 235.851 32.396 235.817 32.396C235.817 32.396 235.817 32.4133 235.817 32.448V39H214.185C214.185 36.6773 214.185 34.3547 214.185 32.032C214.185 29.7093 214.185 27.3867 214.185 25.064C214.185 22.7413 214.185 20.4187 214.185 18.096C214.185 15.7733 214.185 13.4507 214.185 11.128C214.185 9.256 214.185 7.40133 214.185 5.564C214.185 3.692 214.185 1.83733 214.185 -3.09944e-06H247.101ZM240.705 21.06C241.745 21.06 242.611 20.8867 243.305 20.54C244.033 20.1587 244.57 19.6907 244.917 19.136C245.263 18.5467 245.437 17.9573 245.437 17.368C245.437 16.744 245.263 16.172 244.917 15.652C244.57 15.0973 244.05 14.6467 243.357 14.3C242.663 13.9533 241.779 13.78 240.705 13.78H235.921C235.886 13.78 235.851 13.7973 235.817 13.832C235.817 13.832 235.817 13.8493 235.817 13.884V21.008C235.851 21.008 235.869 21.0253 235.869 21.06C235.903 21.06 235.921 21.06 235.921 21.06H240.705ZM267.759 -3.09944e-06H305.355C308.405 -3.09944e-06 310.936 0.554664 312.947 1.664C314.957 2.73866 316.465 4.14266 317.471 5.876C318.476 7.57467 318.979 9.37733 318.979 11.284C318.979 13.26 318.424 15.184 317.315 17.056C316.24 18.8933 314.593 20.4013 312.375 21.58C310.191 22.7587 307.452 23.348 304.159 23.348C304.02 23.348 303.673 23.348 303.119 23.348C302.564 23.348 301.992 23.348 301.403 23.348C300.848 23.348 300.484 23.348 300.311 23.348C300.311 23.348 300.311 23.3653 300.311 23.4C300.311 23.4347 300.311 23.452 300.311 23.452C300.311 23.452 300.311 23.4693 300.311 23.504C300.311 23.504 300.311 23.5213 300.311 23.556H312.115L320.123 39H295.423C294.764 37.232 294.088 35.464 293.395 33.696C292.736 31.928 292.06 30.16 291.367 28.392C290.708 26.624 290.032 24.856 289.339 23.088H295.371C296.064 23.088 296.671 22.984 297.191 22.776C297.745 22.568 298.196 22.2907 298.543 21.944C298.889 21.5973 299.149 21.216 299.323 20.8C299.496 20.3493 299.583 19.8987 299.583 19.448C299.583 18.824 299.427 18.2347 299.115 17.68C298.803 17.1253 298.335 16.6747 297.711 16.328C297.087 15.9813 296.307 15.808 295.371 15.808H289.443C289.443 15.808 289.425 15.8253 289.391 15.86C289.391 15.86 289.373 15.86 289.339 15.86C289.339 15.86 289.339 15.8773 289.339 15.912C289.339 18.1653 289.339 19.8293 289.339 20.904C289.339 21.944 289.339 22.6027 289.339 22.88C289.339 23.1227 289.339 23.2093 289.339 23.14C289.339 23.14 289.339 23.3307 289.339 23.712C289.339 24.0587 289.339 24.544 289.339 25.168C289.339 25.792 289.339 26.5027 289.339 27.3C289.339 28.444 289.339 29.7093 289.339 31.096C289.339 32.4827 289.339 33.8693 289.339 35.256C289.339 36.608 289.339 37.856 289.339 39H267.759C267.759 36.7813 267.759 34.5627 267.759 32.344C267.759 30.0907 267.759 27.8547 267.759 25.636C267.759 23.4173 267.759 21.1987 267.759 18.98C267.759 16.7267 267.759 14.4907 267.759 12.272C267.759 10.2267 267.759 8.18133 267.759 6.136C267.759 4.09066 267.759 2.04533 267.759 -3.09944e-06Z" fill="#161310"/>
</svg>
